<svg xmlns="http://www.w3.org/2000/svg" width="1200" height="800" viewBox="0 0 1200 800" role="img" aria-labelledby="title desc"><title id="title">Psalm 34:8 — Taste and see that the LORD is good</title><desc id="desc">A warm sunrise over a mountain valley with a sheltered path, symbolizing experiencing God's goodness and taking refuge in him.</desc><defs><linearGradient id="sky" x1="0" y1="0" x2="0" y2="1"><stop offset="0" stop-color="#203c64"/><stop offset="0.48" stop-color="#e7a85b"/><stop offset="1" stop-color="#f7dfaa"/></linearGradient><linearGradient id="hill" x1="0" y1="0" x2="1" y2="1"><stop stop-color="#263f32"/><stop offset="1" stop-color="#58704a"/></linearGradient><radialGradient id="sun"><stop offset="0" stop-color="#fffbd7"/><stop offset="0.42" stop-color="#ffe29a" stop-opacity=".9"/><stop offset="1" stop-color="#ffd27b" stop-opacity="0"/></radialGradient><filter id="blur"><feGaussianBlur stdDeviation="18"/></filter></defs><rect width="1200" height="800" fill="url(#sky)"/><circle cx="880" cy="250" r="190" fill="url(#sun)" filter="url(#blur)"/><circle cx="880" cy="250" r="58" fill="#fff3bd" opacity=".95"/><path d="M0 510 L190 330 330 470 520 260 730 470 910 340 1200 520 1200 800 0 800Z" fill="#263b43" opacity=".78"/><path d="M0 590 C190 500 320 555 465 520 C650 475 770 510 910 470 C1040 435 1120 455 1200 500 L1200 800 0 800Z" fill="url(#hill)"/><path d="M0 675 C250 620 430 655 610 610 C780 570 980 610 1200 545 L1200 800 0 800Z" fill="#182d25"/><path d="M545 800 C555 725 590 675 650 635 C710 595 765 575 825 560" fill="none" stroke="#d9c28d" stroke-width="42" stroke-linecap="round" opacity=".82"/><path d="M548 800 C558 730 590 682 651 641 C709 603 767 581 826 566" fill="none" stroke="#f0ddb0" stroke-width="17" stroke-linecap="round" opacity=".62"/><g opacity=".9"><path d="M95 660 Q145 540 205 660Z" fill="#10281f"/><path d="M160 665 Q220 505 285 665Z" fill="#153226"/><path d="M970 620 Q1030 475 1095 620Z" fill="#122b21"/><path d="M1040 640 Q1100 500 1160 640Z" fill="#173629"/></g><g fill="#fff4cf" opacity=".72"><circle cx="340" cy="640" r="5"/><circle cx="375" cy="618" r="4"/><circle cx="408" cy="652" r="5"/><circle cx="902" cy="585" r="4"/><circle cx="940" cy="605" r="5"/></g></svg>